<?xml version="1.0" encoding="UTF-8"?>
<svg id="Capa_1" xmlns="http://www.w3.org/2000/svg" version="1.1" viewBox="0 0 512 512">
  <!-- Generator: Adobe Illustrator 29.1.0, SVG Export Plug-In . SVG Version: 2.1.0 Build 142)  -->
  <path d="M0,0v512h512V0H0ZM482,482H30V30h452v452Z"/>
  <polygon points="399.7 352 365.4 352 328.9 297.5 311.6 314.6 311.6 352 279.5 352 279.5 176.8 311.6 176.8 311.6 283.1 362 226.5 396.3 226.5 349.5 279.8 399.7 352"/>
  <polygon points="399.7 352 365.4 352 328.9 297.5 311.6 314.6 311.6 352 279.5 352 279.5 176.8 311.6 176.8 311.6 283.1 362 226.5 396.3 226.5 349.5 279.8 399.7 352"/>
  <polygon points="261.5 181.6 261.5 210.6 207 210.6 207 352 174.1 352 174.1 210.6 119.6 210.6 119.6 181.6 261.5 181.6"/>
  <polygon points="399.7 352 365.4 352 328.9 297.5 311.6 314.6 311.6 352 279.5 352 279.5 176.8 311.6 176.8 311.6 283.1 362 226.5 396.3 226.5 349.5 279.8 399.7 352"/>
  <polygon points="399.7 352 365.4 352 328.9 297.5 311.6 314.6 311.6 352 279.5 352 279.5 176.8 311.6 176.8 311.6 283.1 362 226.5 396.3 226.5 349.5 279.8 399.7 352"/>
  <polygon points="399.7 352 365.4 352 328.9 297.5 311.6 314.6 311.6 352 279.5 352 279.5 176.8 311.6 176.8 311.6 283.1 362 226.5 396.3 226.5 349.5 279.8 399.7 352"/>
</svg>