<?xml version="1.0" encoding="UTF-8"?>
<svg id="Capa_1" xmlns="http://www.w3.org/2000/svg" version="1.1" viewBox="0 0 512 512">
  <!-- Generator: Adobe Illustrator 29.1.0, SVG Export Plug-In . SVG Version: 2.1.0 Build 142)  -->
  <path d="M0,0v512h512V0H0ZM482,482H30V30h452v452Z"/>
  <path d="M256,294.2l-46-65V90h-120v150h90.9l75.1,106.3h0s16,22.7,16,22.7v-52.2l-16-22.6ZM180,210h-60v-90h60v90Z"/>
  <path d="M330,272l-74-106.1h0s-16-22.9-16-22.9v52.2l16,23,46,66.1v137.7h120v-150h-92ZM392,392h-60v-90h60v90Z"/>
</svg>