<?xml version="1.0" encoding="UTF-8"?>
<svg id="Capa_1" xmlns="http://www.w3.org/2000/svg" version="1.1" viewBox="0 0 512 512">
  <!-- Generator: Adobe Illustrator 29.1.0, SVG Export Plug-In . SVG Version: 2.1.0 Build 142)  -->
  <path d="M0,0v512h512V0H0ZM482,482H30V30h452v452Z"/>
  <polygon points="256 411.9 226 429.2 256 446.5 333.3 401.9 436 342.6 406 325.3 256 411.9"/>
  <path d="M76,342.6l30,17.3,75-43.3,20,11.5-75,43.3,30,17.3,75-43.3,20,11.5-75,43.3,30,17.3,50-28.9,130-75.1-25-14.4,75-43.3-75-43.3,75-43.3-180-103.9-180,103.9,75,43.3-75,43.3,75,43.3-9,5.2-66,38.1ZM271,108.8l79,45.6h-79v-45.6ZM271,184.4h79l-79,45.6v-45.6ZM241,108.8v45.6h-79l79-45.6ZM241,184.4v45.6l-79-45.6h79Z"/>
</svg>