<?xml version="1.0" encoding="UTF-8"?>
<svg id="Capa_1" xmlns="http://www.w3.org/2000/svg" version="1.1" viewBox="0 0 512 512">
  <!-- Generator: Adobe Illustrator 29.1.0, SVG Export Plug-In . SVG Version: 2.1.0 Build 142)  -->
  <path d="M0,0v512h512V0H0ZM482,482H30V30h452v452Z"/>
  <path d="M157.5,309.5h59.5l15.8,42.5h34.1l-11-28.9-53.8-141.5h-29.3l-65,170.4h34.1l15.6-42.5ZM187.5,219.3l23.5,67h-48l24.5-67Z"/>
  <path d="M337.5,354.4c38.2,0,53.9-23.3,58.6-32.9l-27.6-7.7c-2.1,5.1-11.9,17-29.8,17-27.6,0-32.9-26.5-33.4-31.4h97.2c.3-1.3.7-8.7.7-10.8,0-43.4-33.5-64.6-65.5-64.6s-66.5,34.5-66.5,65.8,26.1,64.6,66.2,64.6ZM337.3,247.4c16.5,0,31,11.1,32.9,31.2h-65.3c1.5-18.4,15.5-31.2,32.4-31.2Z"/>
</svg>