<?xml version="1.0" encoding="UTF-8"?>
<svg id="Layer_1" xmlns="http://www.w3.org/2000/svg" version="1.1" viewBox="0 0 510.2 510.2">
  <!-- Generator: Adobe Illustrator 29.1.0, SVG Export Plug-In . SVG Version: 2.1.0 Build 142)  -->
  <defs>
    <style>
      .st0 {
        fill-rule: evenodd;
      }
    </style>
  </defs>
  <path class="st0" d="M37.5-.4l40.8,461.4,176.8,49.7,176.8-49.7L472.7-.4H37.5ZM385.1,149.1l-130.2,58.1h-.3c0,0,.3,0,.3,0h125.5l-14.3,172.8-111,33.8h-.2c0,0,0,0,0,0l-111.5-34.4-7.2-87h55.4l3.6,45.1,59.3,15.6h.5c0,0,0,0,0,0l61.4-18.1,4.2-72.7-65.6-.2-122.3-.4-4.2-54.5,126.4-55,7.4-3.2H123.6l-6.6-55.7h273.4l-5.3,55.7Z"/>
</svg>