<?xml version="1.0" encoding="UTF-8"?>
<svg id="Capa_1" xmlns="http://www.w3.org/2000/svg" version="1.1" viewBox="0 0 512 512">
  <!-- Generator: Adobe Illustrator 29.1.0, SVG Export Plug-In . SVG Version: 2.1.0 Build 142)  -->
  <path d="M0,0v512h512V0H0ZM482,482H30V30h452v452Z"/>
  <polygon points="112.4 352 148.4 352 188.9 291 229.3 352 265 352 256 339.1 206.2 268 256 197.2 266.9 181.6 231.2 181.6 188.9 245 146.5 181.6 110.5 181.6 171.2 268 112.4 352"/>
  <path d="M325.7,354.4c25.2,0,39-16.2,43.7-24.2,0,0-2.1,23.5,21.1,23.5s8.1-.6,13.7-1.7v-27.4c-2.7-.2-7.4-6.2-7.4-9.6v-138.2h-32.2v71.5c-4.2-7.2-17.2-24.2-42.5-24.2s-56.2,25.9-56.2,65,22.8,65.3,59.8,65.3ZM332.2,251.4c19.6,0,31.1,21,32.4,24.5v30c-1.1,3-10.3,21.1-30.5,21.1s-34.8-18.9-34.8-37.2,11-38.4,32.9-38.4Z"/>
</svg>