<?xml version="1.0" encoding="UTF-8"?>
<svg id="Layer_1" xmlns="http://www.w3.org/2000/svg" version="1.1" viewBox="0 0 510.2 510.2">
  <!-- Generator: Adobe Illustrator 29.1.0, SVG Export Plug-In . SVG Version: 2.1.0 Build 142)  -->
  <path d="M389.3,175.3c26-17.1,43.2-46.5,43.2-79.8,0-52.6-42.8-95.4-95.4-95.4h-163.8c-52.6,0-95.4,42.8-95.4,95.5s17.2,62.7,43.2,79.8c-26,17.1-43.2,46.5-43.2,79.8s17.2,62.7,43.2,79.8c-26,17.1-43.2,46.5-43.2,79.8,0,52.6,43.1,95.4,96,95.4s97-43.3,97-96.5v-63.2h0v-24.8c17,15.4,39.5,24.8,64.2,24.8h2.1c52.6,0,95.4-42.8,95.4-95.4s-17.2-62.7-43.2-79.8ZM337,31.3c35.4,0,64.2,28.8,64.2,64.2s-28.8,64.2-64.2,64.2h-66.2V31.3h66.2ZM109,95.4c0-35.4,28.8-64.2,64.2-64.2h66.2v128.4h-66.2c-35.4,0-64.2-28.8-64.2-64.2ZM173.2,190.9h66.3v62.5c0,.6,0,1.1,0,1.7s0,1.1,0,1.7v62.5h-66.3c-35.4,0-64.2-28.8-64.2-64.2s28.8-64.2,64.2-64.2ZM239.5,413.7c0,36-29.5,65.2-65.8,65.2s-64.7-28.8-64.7-64.2c0-35.4,28.8-64.1,64.2-64.2h66.3v63.1ZM337,319.3h-2.1c-35.4,0-64.2-28.8-64.2-64.2h0c0-35.4,28.8-64.2,64.2-64.2h2.1c35.4,0,64.2,28.8,64.2,64.2s-28.8,64.2-64.2,64.2Z"/>
</svg>