<?xml version="1.0" encoding="UTF-8"?>
<svg id="Capa_1" xmlns="http://www.w3.org/2000/svg" version="1.1" viewBox="0 0 512 512">
  <!-- Generator: Adobe Illustrator 29.1.0, SVG Export Plug-In . SVG Version: 2.1.0 Build 142)  -->
  <path d="M256,273.2h0c.4-.6.9-1.2,1.3-1.8-.4.6-.9,1.2-1.3,1.8Z"/>
  <path d="M385.7,314.6c0,34.9-35.2,39.8-50.9,39.8-29,0-49.7-13.2-56.9-19.4l12-20.2c7.7,5.4,25.3,16.6,44.2,16.6s20.6-5.1,20.6-13.9-17.8-14.3-27.6-17c-8.2-2.2-44.9-7.4-44.9-35s23.2-41.5,49.4-41.5,42.3,11.2,49.2,17.3l-13,19.4c-6.4-4.8-20.7-13.9-36.5-13.9s-19.2,5-19.2,14.2,20.1,14.7,24.7,15.8c8.6,2.2,48.7,8.4,48.7,37.9Z"/>
  <path d="M0,0v512h512V0H0ZM482,482H30V30h452v452Z"/>
  <path d="M257.3,271.3c-.4.6-.9,1.2-1.3,1.8h0c.4-.6.9-1.2,1.3-1.8Z"/>
  <path d="M385.7,314.6c0,34.9-35.2,39.8-50.9,39.8-29,0-49.7-13.2-56.9-19.4l12-20.2c7.7,5.4,25.3,16.6,44.2,16.6s20.6-5.1,20.6-13.9-17.8-14.3-27.6-17c-8.2-2.2-44.9-7.4-44.9-35s23.2-41.5,49.4-41.5,42.3,11.2,49.2,17.3l-13,19.4c-6.4-4.8-20.7-13.9-36.5-13.9s-19.2,5-19.2,14.2,20.1,14.7,24.7,15.8c8.6,2.2,48.7,8.4,48.7,37.9Z"/>
  <path d="M256,273.2h0c.4-.6.9-1.2,1.3-1.8-.4.6-.9,1.2-1.3,1.8Z"/>
  <path d="M385.7,314.6c0,34.9-35.2,39.8-50.9,39.8-29,0-49.7-13.2-56.9-19.4l12-20.2c7.7,5.4,25.3,16.6,44.2,16.6s20.6-5.1,20.6-13.9-17.8-14.3-27.6-17c-8.2-2.2-44.9-7.4-44.9-35s23.2-41.5,49.4-41.5,42.3,11.2,49.2,17.3l-13,19.4c-6.4-4.8-20.7-13.9-36.5-13.9s-19.2,5-19.2,14.2,20.1,14.7,24.7,15.8c8.6,2.2,48.7,8.4,48.7,37.9Z"/>
  <path d="M267.3,237c0-.3,0-.6,0-.9,0-.4,0-.7,0-1.1,0-.6,0-1.2-.1-1.7,0-.3,0-.7-.1-1,0-.6-.1-1.1-.2-1.7-.1-.7-.2-1.4-.3-2,0,0,0-.1,0-.2,0-.3-.1-.6-.2-.9,0-.4-.2-.9-.3-1.3,0-.3-.1-.6-.2-.9-.6-2.3-1.2-4.5-2.1-6.7-.1-.3-.2-.6-.3-.9,0-.2-.2-.4-.3-.7-.2-.4-.3-.7-.5-1.1,0-.2-.2-.4-.2-.5-.3-.6-.6-1.3-.9-1.9-1-2-2.1-4-3.3-5.9-.2-.4-.5-.8-.7-1.1-.5-.7-1-1.4-1.5-2.2h0c-9.4-13.1-24.3-22.8-42.9-22.8h-72.2v170.4h33.1v-57.1h40.3c17,0,32-8.5,41.7-21.7h0c.4-.6.9-1.2,1.3-1.8h0c.4-.6.8-1.3,1.2-1.9.2-.3.4-.6.6-1,.8-1.3,1.5-2.7,2.2-4.1.3-.6.6-1.3.9-2,.3-.7.6-1.4.9-2.1.3-.7.5-1.4.8-2.2.1-.4.3-.7.4-1.1.1-.4.2-.7.3-1.1,0-.3.2-.6.3-.9.1-.4.2-.9.4-1.3h0c.1-.5.2-.9.3-1.4.1-.4.2-.9.3-1.3.3-1.4.5-2.8.7-4.1,0-.3,0-.6.1-.9,0-.1,0-.3,0-.4,0-.4,0-.8.1-1.2,0-.4,0-.8.1-1.2,0-.3,0-.7,0-1,0-.8,0-1.6.1-2.4,0-.5,0-1,0-1.5s0-.8,0-1.2ZM212.4,265.8h-38.4v-55.2h37c14.1,0,22.8,13.2,22.8,27.6s-9.7,27.6-21.4,27.6Z"/>
  <path d="M257.3,271.3c-.4.6-.9,1.2-1.3,1.8h0c.4-.6.9-1.2,1.3-1.8Z"/>
  <path d="M385.7,314.6c0,34.9-35.2,39.8-50.9,39.8-29,0-49.7-13.2-56.9-19.4l12-20.2c7.7,5.4,25.3,16.6,44.2,16.6s20.6-5.1,20.6-13.9-17.8-14.3-27.6-17c-8.2-2.2-44.9-7.4-44.9-35s23.2-41.5,49.4-41.5,42.3,11.2,49.2,17.3l-13,19.4c-6.4-4.8-20.7-13.9-36.5-13.9s-19.2,5-19.2,14.2,20.1,14.7,24.7,15.8c8.6,2.2,48.7,8.4,48.7,37.9Z"/>
  <path d="M256,273.2h0c.4-.6.9-1.2,1.3-1.8-.4.6-.9,1.2-1.3,1.8Z"/>
  <path d="M385.7,314.6c0,34.9-35.2,39.8-50.9,39.8-29,0-49.7-13.2-56.9-19.4l12-20.2c7.7,5.4,25.3,16.6,44.2,16.6s20.6-5.1,20.6-13.9-17.8-14.3-27.6-17c-8.2-2.2-44.9-7.4-44.9-35s23.2-41.5,49.4-41.5,42.3,11.2,49.2,17.3l-13,19.4c-6.4-4.8-20.7-13.9-36.5-13.9s-19.2,5-19.2,14.2,20.1,14.7,24.7,15.8c8.6,2.2,48.7,8.4,48.7,37.9Z"/>
</svg>