<?xml version="1.0" encoding="UTF-8"?>
<svg id="Layer_1" xmlns="http://www.w3.org/2000/svg" version="1.1" viewBox="0 0 510.2 510.2">
  <!-- Generator: Adobe Illustrator 29.1.0, SVG Export Plug-In . SVG Version: 2.1.0 Build 142)  -->
  <path d="M14.8,255.1c0,95.1,55.3,177.4,135.5,216.3L35.6,157.3c-13.4,29.9-20.8,63-20.8,97.8ZM417.4,243c0-29.7-10.7-50.3-19.8-66.3-12.2-19.8-23.6-36.6-23.6-56.4s16.7-42.7,40.4-42.7l3.1.2c-42.8-39.2-99.7-63.1-162.3-63.1S99.8,56.4,56.6,119.8c18.1.3,77.3.6,77.3.6,12.9-.7,14.5,18.3,1.5,19.8,0,0-13,1.5-27.5,2.3l87.6,260.4,52.6-157.8-37.5-102.6c-12.9-.8-25.2-2.3-25.2-2.3-13-.8-11.4-20.6,1.5-19.8h127.4c12.9-.7,14.5,18.3,1.5,19.8,0,0-13,1.5-27.5,2.3l86.9,258.4,24-80.1c12.1-31.3,18.2-57.2,18.2-77.7ZM259.4,276.2l-72.2,209.6c21.5,6.3,44.3,9.8,67.9,9.8s54.8-4.8,79.8-13.6l-1.7-3.3-73.9-202.4ZM466.1,139.8c1.1,7.7,1.7,15.9,1.7,24.8,0,24.4-4.6,51.8-18.3,86.1l-73.4,212.3c71.4-41.6,119.5-119.1,119.5-207.7,0-41.8-10.7-81.1-29.4-115.4Z"/>
</svg>