<?xml version="1.0" standalone="no"?>
<!DOCTYPE svg PUBLIC "-//W3C//DTD SVG 1.1//EN" "http://www.w3.org/Graphics/SVG/1.1/DTD/svg11.dtd">
<svg xmlns="http://www.w3.org/2000/svg">
<metadata>Generated by Fontastic.me</metadata>
<defs>
<font id="socialkinabel" horiz-adv-x="512">
<font-face font-family="socialkinabel" units-per-em="512" ascent="480" descent="-32"/>
<missing-glyph horiz-adv-x="512" />

<glyph glyph-name="adobe-video" unicode="&#57344;" d="M0 512l0-512 512 0 0 512z m482-482l-452 0 0 452 452 0z m-336 246l-60 0 0 70c0 33 27 60 60 60l0-30c-16 0-30-14-30-30l0-10 30 0z m90 130l0-30c-16 0-30-14-30-30l0-10 30 0 0-60-60 0 0 70c0 33 27 60 60 60z m0-210l0-30c-39 0-70 31-70 70l30 0c0-22 18-40 40-40z m0-60l0-30c-72 0-130 58-130 130l30 0c0-55 45-100 100-100z m40 100l60 0 0-70c0-33-27-60-60-60l0 30c17 0 30 13 30 30l0 10-30 0z m70 40l-30 0c0 22-18 40-40 40l0 30c39 0 70-31 70-70z m30 0c0 55-45 100-100 100l0 30c72 0 130-58 130-130z m50-40l0-70c0-33-27-60-60-60l0 30c17 0 30 13 30 30l0 10-30 0 0 60z m-150 0l60 0 0-70c0-33-27-60-60-60l0 30c17 0 30 13 30 30l0 10-30 0z m70 40l-30 0c0 22-18 40-40 40l0 30c39 0 70-31 70-70z m30 0c0 55-45 100-100 100l0 30c72 0 130-58 130-130z m50-40l0-70c0-33-27-60-60-60l0 30c17 0 30 13 30 30l0 10-30 0 0 60z m-280 40l-60 0 0 70c0 33 27 60 60 60l0-30c-16 0-30-14-30-30l0-10 30 0z m90 130l0-30c-16 0-30-14-30-30l0-10 30 0 0-60-60 0 0 70c0 33 27 60 60 60z m0-210l0-30c-39 0-70 31-70 70l30 0c0-22 18-40 40-40z m0-60l0-30c-72 0-130 58-130 130l30 0c0-55 45-100 100-100z m40 100l60 0 0-70c0-33-27-60-60-60l0 30c17 0 30 13 30 30l0 10-30 0z m70 40l-30 0c0 22-18 40-40 40l0 30c39 0 70-31 70-70z m30 0c0 55-45 100-100 100l0 30c72 0 130-58 130-130z m50-40l0-70c0-33-27-60-60-60l0 30c17 0 30 13 30 30l0 10-30 0 0 60z m-150 0l60 0 0-70c0-33-27-60-60-60l0 30c17 0 30 13 30 30l0 10-30 0z m70 40l-30 0c0 22-18 40-40 40l0 30c39 0 70-31 70-70z m30 0c0 55-45 100-100 100l0 30c72 0 130-58 130-130z m50-40l0-70c0-33-27-60-60-60l0 30c17 0 30 13 30 30l0 10-30 0 0 60z m-220 110l0-10 30 0 0-60-60 0 0 70c0 33 27 60 60 60l0-30c-16 0-30-14-30-30z m-90 0l0-10 30 0 0-60-60 0 0 70c0 33 27 60 60 60l0-30c-16 0-30-14-30-30z m220-110l0-70c0-33-27-60-60-60l0 30c17 0 30 13 30 30l0 10-30 0 0 60z m90 0l0-70c0-33-27-60-60-60l0 30c17 0 30 13 30 30l0 10-30 0 0 60z m-80 40l-30 0c0 22-18 40-40 40l0 30c39 0 70-31 70-70z m60 0l-30 0c0 55-45 100-100 100l0 30c72 0 130-58 130-130z m-170-80l0-30c-39 0-70 31-70 70l30 0c0-22 18-40 40-40z m0-60l0-30c-72 0-130 58-130 130l30 0c0-55 45-100 100-100z"/>
<glyph glyph-name="adobe-post" unicode="&#57345;" d="M0 512l0-512 512 0 0 512z m482-482l-452 0 0 452 452 0z m-28 279l-53 31 0 61-61 0-31 53-53-31-53 31-31-53-61 0 0-61-53-31 31-53-31-53 53-31 0-61 61 0 31-53 53 30 53-30 31 53 61 0 0 61 53 31-30 53z m-343-102l-12 7 12 21z m0 70l-12 21 12 7z m187 136l7-12-28 0z m-84 0l21-12-28 0z m0-314l-7 12 28 0z m84 0l-21 12 28 0z m73 42l-230 0 0 230 230 0z m30 66l0 28 12-21z m0 70l0 28 12-7z"/>
<glyph glyph-name="adobe-preview" unicode="&#57346;" d="M0 512l0-512 512 0 0 512z m482-482l-452 0 0 452 452 0z m-226 188l-46 65 0 139-120 0 0-150 91 0 75-106c0 0 16-23 16-23l0 52z m-76 84l-60 0 0 90 60 0z m150-62l-74 106c0 0-16 23-16 23l0-52 16-23 46-66 0-138 120 0 0 150z m62-120l-60 0 0 90 60 0z"/>
<glyph glyph-name="adobe-premiere-elements" unicode="&#57347;" d="M0 512l0-512 512 0 0 512z m482-482l-452 0 0 452 452 0z m-226 42c1-1 2-1 3-2-1 0-2 1-3 2z m4-3c1 0 2-1 4-1-1 0-3 1-4 1z m7-3c1 0 2 0 3-1-1 1-2 1-3 1z m6 31c0-1 1-1 1-1 0 0-1 0-1 1l-17 12c0 0 17-12 17-12z m-17-25c1-1 2-1 3-2-1 0-2 1-3 2z m4-3c1 0 2-1 4-1-1 0-3 1-4 1z m7-3c1 0 2 0 3-1-1 1-2 1-3 1z m6 31c0-1 1-1 1-1 0 0-1 0-1 1l-17 12c0 0 17-12 17-12z m-17-25c1-1 2-1 3-2-1 0-2 1-3 2z m4-3c1 0 2-1 4-1-1 0-3 1-4 1z m7-3c1 0 2 0 3-1-1 1-2 1-3 1z m6 31c0-1 1-1 1-1 0 0-1 0-1 1l-17 12c0 0 17-12 17-12z m-17-25c1-1 2-1 3-2-1 0-2 1-3 2z m4-3c1 0 2-1 4-1-1 0-3 1-4 1z m7-3c1 0 2 0 3-1-1 1-2 1-3 1z m6 31c0-1 1-1 1-1 0 0-1 0-1 1l-17 12c0 0 17-12 17-12z m-6-31c1 0 2 0 3-1-1 1-2 1-3 1z m-7 3c1 0 2-1 4-1-1 0-3 1-4 1z m-4 3c1-1 2-2 3-2-1 1-2 1-3 2z m192 217c-3 12-9 23-19 30l-173 121c-10 7-22 9-33 7-12-2-23-8-29-18l-122-173c-7-10-9-22-7-34 2-11 8-22 18-29l173-121c1-1 2-2 3-2 1 0 1-1 1-1 1 0 2-1 4-1 0-1 1-1 1-1 1 0 1 0 2-1 1 0 2 0 3-1 0 0 1 0 2 0 1 0 2-1 3-1 5 0 10 0 15 1 11 2 22 8 29 18l121 173c7 10 10 22 8 34z m-33-16l-121-173c-2-3-6-5-10-6-2 0-5 0-7 1-1 0-1 0-1 0 0 0-1 0-1 0 0 0 0 1-1 1 0 0 0 0-1 0l-17 12c0 0-156 110-156 110-3 2-5 6-6 9 0 4 0 8 3 12l121 173c2 3 6 5 10 6 4 0 8-1 11-3l17-12c0 0 156-109 156-109 0-1 1-1 1-1 1-1 2-2 3-3 0 0 0-1 0-1 1-1 2-2 2-3 0-1 0-1 0-2 1-4 0-8-2-11z m-159 75c-51 0-92-41-92-92 0-51 41-93 92-93 51 0 93 42 93 93 0 51-42 92-93 92z m0-118l-30-17 0 86 30-17 45-26z m18-134c0 0-1 0-1 1l-17 12c0 0 17-12 17-12 0-1 1-1 1-1z"/>
<glyph glyph-name="adobe-premiere-clip" unicode="&#57348;" d="M0 512l0-512 512 0 0 512z m482-482l-452 0 0 452 452 0z m-329 384l-30 17 0-350 30 17z m60-35l-30 17 0-280 30 17z m213-123l-170 98-13 8 0-212 13 8 170 98z m-153-54l0 108 93-54z"/>
<glyph glyph-name="adobe-photoshop-mix" unicode="&#57349;" d="M0 512l0-512 512 0 0 512z m482-482l-452 0 0 452 452 0z m-328 124c5-10 11-21 18-30l24 17c-1 1-1 2-1 2 6-1 13-1 20-1 14 0 28 2 41 6 2 0 4 1 6 1 1 1 2 1 2 1 12 4 23 9 33 16 2 1 4 2 6 4 2 1 4 3 6 4 1 1 2 1 3 2 1 1 3 3 5 4 1 1 1 1 2 2 0 1 1 1 1 2 2 1 4 3 5 5 1 0 1 1 2 1 1 1 2 3 3 4 1 1 2 2 3 3 1 1 2 3 3 4 1 0 1 1 2 2 1 1 2 3 4 5 0 1 1 1 1 2 1 1 1 2 2 3 1 1 2 3 3 5 1 1 1 2 2 3 0 1 1 1 1 2 1 1 1 2 2 3 0 1 1 2 1 3 0 1 1 2 1 3 1 1 1 2 2 2 0 1 0 1 0 1 0 1 1 2 1 2 1 2 2 4 2 6 1 2 2 4 2 6 1 1 1 2 1 3 1 1 1 2 1 3 1 1 1 2 1 3 0 1 1 2 1 3 0 0 0 1 0 1 0 1 0 2 0 2 0 0 0 0 0 1 1 0 1 1 1 2 0 0 0 1 0 1 0 1 0 2 1 3 0 1 0 1 0 2 0 1 0 1 0 2 0 1 0 2 1 2 0 1 0 2 0 3 0 0 0 0 0 0 0 2 0 3 0 4 0 1 0 2 0 3 0 0 0 0 0 0 0 1 0 2 1 3 0 1 0 2 0 4 0 1 0 2 0 3 0 7-1 14-2 20 4-3 8-6 12-9l20 22c-13 12-27 21-43 27 0 2-1 3-1 4 0 0-1 1-1 2 0 0-1 1-1 2-2 3-4 7-6 10 0 1-1 2-1 2 0 1-1 2-1 3-2 2-4 5-5 7-1 1-1 1-2 2-3 5-7 9-11 14-1 0-1 1-2 1 0 1-1 1-1 2-1 1-2 2-3 3-1 0-1 1-2 1 0 0 0 0 0 0-2 2-3 3-5 5-1 1-2 1-3 2-1 1-2 2-4 3 0 1-1 1-1 1 0 0 0 0-1 1-1 0-2 1-3 2-1 1-2 2-4 2 0 1-1 1-1 2-2 1-4 2-6 3 0 0-1 1-2 1-1 1-2 2-4 2 0 1-1 1-2 1-1 1-2 2-4 2 0 0-1 1-2 1-1 1-2 1-4 2 0 0-1 0-2 1 0 0-1 0-2 0 0 1-1 1-2 1-1 1-2 1-4 2 0 0-1 0-1 0-1 0-2 1-3 1-1 0-3 1-4 1-13 4-27 6-41 6-86 0-155-70-155-155 0-86 39-119 94-143z m130 185c1 0 1 0 2 0 0 0 1 0 1 1 1 0 2 0 2 0 1 0 2 0 2 0 1 0 1 0 1 0 1 0 2 0 2 0 1 0 2 0 3 0 13 0 25-2 37-6 4-12 6-24 6-37 0-13 0-2 0-3 0-1 0-1 0-2 0 0 0 0 0-1 0 0 0-1 0-2 0-1 0-1 0-2 0-1 0-1 0-2 0 0 0-1 0-1 0 0 0 0 0 0l-56 55c0 0 0 0 0 0 0 0 0 0 1 0z m-34-8l81-81c-1-2-1-3-2-5 0 0 0-1-1-1 0 0 0-1 0-1 0-1-1-1-1-1-1-4-3-7-5-10 0 0 0-1-1-1-1-2-2-4-4-6 0-1 0-1-1-2 0 0 0 0-1-1 0 0 0-1-1-1 0 0 0-1 0-1l-58 57c0 0-36 36-36 36 9 7 19 13 30 18z m-51-39l93-93c0 0 0-1 0-1-1 0-2-1-2-1-1-1-1-1-2-2-1 0-3-1-4-2-1-1-1-1-2-2-1 0-1 0-2-1 0 0 0 0 0 0-1 0-1-1-2-1-1-1-2-1-2-1-2-1-3-2-4-3-1 0-2 0-3-1 0 0-1 0-2-1-1 0-2-1-2-1-1 0-2-1-3-1l-6 6c0 0-75 75-75 75 5 11 11 21 18 30z m-26-64l55-55c-4-1-9-1-13-1-13 0-25 2-37 6-4 12-6 24-6 37 0 13 0 9 1 13z m40-106l-20-22c17-15 35-26 56-33l7 21c0 0 2 8 2 8 0 0-1 0-2 1-16 5-30 14-43 25z m206 119l30 7c-5 21-14 41-27 58l-24-17c10-15 18-31 21-48z m3-26c0-18-4-35-11-51l28-12c9 20 13 41 13 63l0 0-30 0z m-125-125c-4 0-9 0-13 1l-3-30c5-1 11-1 16-1 16 0 33 3 48 8l-9 28c-13-4-26-6-39-6z m63 17l15-26c18 10 35 25 47 43l-24 17c-10-14-24-26-39-34z"/>
<glyph glyph-name="adobe-photoshop-fix" unicode="&#57350;" d="M0 512l0-512 512 0 0 512z m482-482l-452 0 0 452 452 0z m-226 411c-102 0-185-83-185-185 0-102 83-185 185-185 102 0 185 83 185 185 0 102-83 185-185 185z m0-340c-85 0-155 69-155 155 0 85 70 155 155 155 86 0 155-70 155-155 0-86-69-155-155-155z m80 170l0-30-65 0 0-65-30 0 0 65-65 0 0 30 65 0 0 65 30 0 0-65z"/>
<glyph glyph-name="adobe-photoshop-elements" unicode="&#57351;" d="M0 512l0-512 512 0 0 512z m482-482l-452 0 0 452 452 0z m-209 256l26 44c-13 7-27 11-43 11-15 0-9 0-14-1l14-24z m26-104c16 10 30 25 37 44l-63 0z m42 74c0 20-7 39-19 54l-31-54z m-120 0l-50 0c0-21 7-39 19-54z m-7 74c-17-10-31-26-37-44l62 0z m-131-137l173-121c1-1 2-2 3-2 1 0 1-1 1-1 1 0 2-1 3-1 1 0 1-1 2-1 1 0 1 0 2-1 1 0 2 0 3-1 0 0 1 0 1 0 2 0 3 0 4-1 5 0 10 0 14 1 12 2 23 8 30 18l121 173c7 10 10 22 7 34-2 11-8 22-18 29l-173 121c-10 7-22 10-33 8-12-3-23-9-30-19l-121-173c-7-10-10-22-7-33 2-12 8-23 18-30z m14 46l121 173c2 3 6 5 10 6 4 1 8 0 11-3l17-12c0 0 156-109 156-109 0 0 1-1 1-1 1-1 2-2 3-3 0 0 0 0 0-1 1-1 1-2 2-3 0-1 0-1 0-2 1-4 0-8-2-11l-122-173c-2-3-6-5-10-6-2 0-5 0-7 1-1 0-1 0-1 0 0 0-1 0-1 0 0 0 0 1-1 1 0 0 0 0-1 0l-17 12-156 110c-3 2-5 5-6 9 0 4 1 8 3 12z m117-57c12-7 27-11 42-11 16 0 9 0 14 1l-14 24-17 30z"/>
<glyph glyph-name="adobe-illustrator-draw" unicode="&#57352;" d="M0 512l0-512 512 0 0 512z m482-482l-452 0 0 452 452 0z m-225 33l198 225-8 8-190-197-1 0-15 17 0 129c-9 5-15 15-15 26 0 16 13 30 30 30 17 0 30-14 30-30 0-17-6-21-15-26l0-129 86 155 0 35c-37 27-61 71-61 120l-80 0c0-49-24-93-61-120l0-35 86-154-164 189-31-28 210-214z"/>
<glyph glyph-name="adobe-comp" unicode="&#57353;" d="M0 512l0-512 512 0 0 512z m482-482l-452 0 0 452 452 0z m-226 70l-30-17 30-18 77 45 103 59-30 18z m-180 69l30-17 75 43 20-11-75-43 30-18 75 44 20-12-75-43 30-18 50 29 130 75-25 15 75 43-75 43 75 44-180 104-180-104 75-44-75-43 75-43-9-5-66-38z m195 234l79-45-79 0z m0-75l79 0-79-46z m-30 75l0-45-79 0z m0-75l0-46-79 46z"/>
<glyph glyph-name="adobe-after-effects" unicode="&#57354;" d="M0 512l0-512 512 0 0 512z m482-482l-452 0 0 452 452 0z m-324 172l59 0 16-42 34 0-11 29-54 141-29 0-65-170 34 0z m30 91l23-67-48 0z m150-135c38 0 53 23 58 32l-27 8c-3-5-12-17-30-17-28 0-33 27-34 32l98 0c0 1 0 8 0 10 0 44-33 65-65 65-32 0-67-35-67-66 0-31 26-64 66-64z m-1 107c17 0 31-12 33-32l-65 0c1 19 15 32 32 32z"/>
<glyph glyph-name="adobe-animate" unicode="&#57355;" d="M0 512l0-512 512 0 0 512z m482-482l-452 0 0 452 452 0z m-169 203c1 4 10 27 32 27 22 0 20-9 20-29l0-71 32 0 0 78c0 26-7 50-38 50-30 0-45-18-50-26l0 24-29 0 0-126 33 0 0 73z m-158-31l60 0 16-42 34 0-9 23-56 147-29 0-65-170 34 0z m30 91l24-67-48 0z"/>
<glyph glyph-name="css3" unicode="&#57356;" d="M38 512l41-463 177-50 177 50 41 463z m348-150l-130-58 0 0c0 0 0 0 0 0l126 0-15-173-111-34 0 0-112 34-7 88 55 0 4-46 59-15 1 0 62 18 4 73-66 0-123 0-4 55 127 55 7 3-139 0-7 56 275 0-6-56z"/>
<glyph glyph-name="adobe-experience" unicode="&#57357;" d="M0 512l0-512 512 0 0 512z m482-482l-452 0 0 452 452 0z m-370 130l36 0 41 61 40-61 36 0-9 13-50 71 50 71 11 15-36 0-42-63-42 63-36 0 60-86z m214-2c25 0 39 16 43 24 0 0-2-24 22-24 23 0 8 1 13 2l0 27c-2 1-7 7-7 10l0 138-32 0 0-71c-5 7-18 24-43 24-25 0-56-26-56-65 0-39 23-65 60-65z m6 103c20 0 31-21 33-25l0-30c-1-3-11-21-31-21-20 0-35 19-35 37 0 18 11 39 33 39z"/>
<glyph glyph-name="figma" unicode="&#57358;" d="M391 336c26 17 43 47 43 80 0 53-43 96-96 96l-164 0c-53 0-96-43-96-96 0-53 17-63 44-80-27-17-44-47-44-80 0-34 17-63 44-80-27-17-44-47-44-80 0-53 43-96 97-96 53 0 97 43 97 97l0 88c17-15 39-25 64-25l2 0c53 0 96 43 96 96 0 53-17 63-43 80z m-53 145c36 0 65-29 65-65 0-35-29-64-65-64l-66 0 0 129z m-229-65c0 36 29 65 65 65l66 0 0-129-66 0c-36 0-65 29-65 64z m65-96l66 0 0-62c0-1 0-1 0-2 0-1 0-1 0-2l0-62-66 0c-36 0-65 28-65 64 0 36 29 64 65 64z m66-223c0-36-29-66-66-66-36 0-65 29-65 65 0 35 29 64 65 64l66 0z m98 95l-2 0c-35 0-64 28-64 64 0 36 29 64 64 64l2 0c36 0 65-28 65-64 0-36-29-64-65-64z"/>
<glyph glyph-name="html5" unicode="&#57359;" d="M31 511l41-459 184-51 184 51 41 459z m365-109l-3-28-1-13-216 0 5-58 206 0-2-15-13-148-1-10-115-32 0 0c0 0-116 32-116 32l-8 89 57 0 4-45 63-17 62 17 7 73-195 0-14 155-2 15 283 0-2-15z"/>
<glyph glyph-name="adobe-illustrator" unicode="&#57360;" d="M317 335l32 0 0-32-32 0z m0-49l32 0 0-126-32 0z m-317 226l0-512 512 0 0 512z m482-482l-452 0 0 452 452 0z m-165 305l32 0 0-32-32 0z m0-49l32 0 0-126-32 0z m0 49l32 0 0-32-32 0z m0-49l32 0 0-126-32 0z m0 49l32 0 0-32-32 0z m0-49l32 0 0-126-32 0z m-61-6l-19 50-29 0-65-170 34 0 15 42 60 0 4-11c0 0 12-31 12-31l34 0-46 120z m-58-54l24 67 24-67z m119 60l0-126 32 0 0 126z m0 49l0-32 32 0 0 32z"/>
<glyph glyph-name="adobe-indesign" unicode="&#57361;" d="M164 330l33 0 0-170-33 0z m92-121c1-1 1-2 1-3 0 1 0 2-1 3z m0 74c0 1 1 1 1 1 0 0-1 0-1-1z m1-46c0 2 1 3 1 4 0-1-1-2-1-4z m1-32c0-1 1-2 1-2 0 0-1 1-1 2z m1 79c0 1 1 1 2 1-1 0-2 0-2-1z m3-124c2 0 5-1 7-1-2 0-5 1-7 1z m-262 352l0-512 512 0 0 512z m482-482l-452 0 0 452 452 0z m-226 179c1-1 1-2 1-3 0 1 0 2-1 3z m1 75c0 0-1 0-1-1 0 1 1 1 1 1z m0-47c0 2 1 3 1 4 0-1-1-2-1-4z m1-32c0-1 1-2 1-2 0 0-1 1-1 2z m3 80c-1 0-2 0-2-1 0 1 1 1 2 1z m1-125c2 0 5-1 7-1-2 0-5 1-7 1z m-98 170l33 0 0-170-33 0z m92-121c1-1 1-2 1-3 0 1 0 2-1 3z m0 74c0 1 1 1 1 1 0 0-1 0-1-1z m1-46c0 2 1 3 1 4 0-1-1-2-1-4z m1-32c0-1 1-2 1-2 0 0-1 1-1 2z m1 79c0 1 1 1 2 1-1 0-2 0-2-1z m3-124c2 0 5-1 7-1-2 0-5 1-7 1z m-6 49c1-1 1-2 1-3 0 1 0 2-1 3z m1 75c0 0-1 0-1-1 0 1 1 1 1 1z m0-47c0 2 1 3 1 4 0-1-1-2-1-4z m1-32c0-1 1-2 1-2 0 0-1 1-1 2z m3 80c-1 0-2 0-2-1 0 1 1 1 2 1z m1-125c2 0 5-1 7-1-2 0-5 1-7 1z m-98 170l33 0 0-170-33 0z m92-47c0 1 1 1 1 1 0 0-1 0-1-1z m3 1c0 1 1 1 2 1-1 0-2 0-2-1z m3-124c2 0 5-1 7-1-2 0-5 1-7 1z m90 37l0 138-33 0 0-71c-4 7-17 24-42 24-25 0-1 0-2 0 0 0-1 0-1 0-1 0-2 0-3 0 0 0 0 0-1-1-2 0-3 0-5-1-1 0-1 0-1 0-1 0-2 0-3-1-1 0-2 0-3-1 0 0 0 0-1 0 0 0-1 0-1-1-20-9-35-31-35-60 0-30 13-50 35-60 0-1 1-1 1-1 0 0 0 0 1 0 0 0 0 0 1-1 0 0 1 0 1 0 1 0 1 0 2-1 2 0 5-1 7-1 1 0 1-1 2-1 0 0 1 0 1 0 1 0 1 0 2 0 2 0 4 0 7 0 25 0 39 16 43 24 0 0-2-24 21-24 24 0 8 1 14 2l0 27c-3 1-7 7-7 10z m-33 9c-1-3-10-21-30-21-20 0-1 0-2 0l0 0c0 0-1 0-1 0 0 0-1 0-1 0 0 0-1 0-1 0 0 0-1 0-1 0-1 0-1 0-1 0-1 0-1 1-2 1 0 0 0 0 0 0-1 0-2 0-3 1 0 0 0 0-1 0 0 0 0 0 0 0 0 0-1 0-1 1-1 0-2 0-3 1 0 0 0 0-1 0 0 0 0 0 0 0 0 1-1 1-1 1 0 1-1 1-1 1 0 0-1 1-1 1 0 0-1 0-1 1 0 0-1 0-1 1 0 0-1 0-1 1 0 0-1 0-1 1 0 0 0 0-1 0 0 1 0 1 0 1 0 0-1 1-1 2-1 0-1 0-1 1 0 0-1 0-1 1 0 0 0 0 0 0 0 0 0 1-1 1 0 1-1 2-1 2 0 1 0 1 0 2 0 0 0 0 0 0-1 0-1 1-1 2-1 0-1 1-1 1-1 4-2 8-2 13 0 4 1 8 2 12 0 1 0 1 1 2 0 0 0 0 0 1 0 1 1 2 1 3 1 1 1 1 1 1 0 0 0 1 0 1 0 0 0 0 1 1 0 0 0 0 0 1 1 0 1 1 1 1 0 0 0 0 1 1 0 0 0 0 0 1 0 0 0 0 1 0 0 0 0 1 0 1 0 0 0 0 0 0 1 1 1 1 1 1 0 0 1 1 1 1 1 1 1 1 2 2 0 0 0 0 1 1 0 0 0 0 0 0 0 0 1 0 1 1 0 0 1 0 1 1 0 0 1 0 1 0 1 1 2 2 4 2 0 0 0 1 1 1 0 0 1 0 1 0 1 0 1 1 1 1 1 0 1 0 1 0 1 0 1 0 1 0 0 0 1 0 1 0 1 0 1 1 2 1 0 0 0 0 1 0 0 0 0 0 0 0 1 0 1 0 1 0 1 0 1 0 2 0 20 0 31-21 32-25l0-30z m-63 3c1-1 1-2 1-3 0 1 0 2-1 3z m2 32c0-1-1-2-1-4 0 2 1 3 1 4z m0-36c0-1 1-2 1-2 0 0-1 1-1 2z"/>
<glyph glyph-name="miro" unicode="&#57362;" d="M371 512l-74 0 66-103-140 103-75 0 66-134-139 134-75 0 65-174-65-338 75 0 139 363-66-363 75 0 140 395-66-395 74 0 141 434c0 0-141 78-141 78z"/>
<glyph glyph-name="notion" unicode="&#57363;" d="M95 422c16-13 22-12 52-10l282 17c6 0 1 6-1 7l-47 34c-9 7-21 15-44 13l-273-20c-10-1-12-6-8-10z m17-66l0-296c0-16 8-22 26-21l310 18c18 1 20 12 20 25l0 294c0 13-5 20-16 19l-324-19c-12-1-16-7-16-20z m306-15c2-9 0-18-9-19l-15-3 0-219c-13-7-25-11-35-11-16 0-20 5-32 20l-97 153 0-148 30-7c0 0 0-18-24-18l-69-4c-2 4 0 14 7 16l18 5 0 196-25 2c-2 9 3 22 17 23l73 5 102-156 0 138-26 3c-2 11 6 19 16 19z m-377 149l284 21c35 3 44 1 66-15l91-64c15-11 20-14 20-26l0-349c0-22-8-35-36-37l-330-20c-21-1-31 2-42 16l-67 87c-11 16-16 28-16 41l0 311c-1 18 7 33 30 35z"/>
<glyph glyph-name="adobe-photoshop" unicode="&#57364;" d="M256 239c0 0 1 1 1 2 0-1-1-2-1-2z m130-42c0-35-35-39-51-39-29 0-50 13-57 19l12 20c8-5 25-16 44-16 19 0 21 5 21 13 0 9-18 15-28 17-8 3-45 8-45 35 0 28 23 42 50 42 26 0 42-11 49-17l-13-20c-7 5-21 14-37 14-15 0-19-5-19-14 0-9 20-15 25-16 8-2 49-8 49-38z m-386 315l0-512 512 0 0 512z m482-482l-452 0 0 452 452 0z m-225 211c0-1-1-2-1-2 0 0 1 1 1 2z m129-44c0-35-35-39-51-39-29 0-50 13-57 19l12 20c8-5 25-16 44-16 19 0 21 5 21 13 0 9-18 15-28 17-8 3-45 8-45 35 0 28 23 42 50 42 26 0 42-11 49-17l-13-20c-7 5-21 14-37 14-15 0-19-5-19-14 0-9 20-15 25-16 8-2 49-8 49-38z m-130 42c0 0 1 1 1 2 0-1-1-2-1-2z m130-42c0-35-35-39-51-39-29 0-50 13-57 19l12 20c8-5 25-16 44-16 19 0 21 5 21 13 0 9-18 15-28 17-8 3-45 8-45 35 0 28 23 42 50 42 26 0 42-11 49-17l-13-20c-7 5-21 14-37 14-15 0-19-5-19-14 0-9 20-15 25-16 8-2 49-8 49-38z m-119 78c0 0 0 1 0 1 0 0 0 1 0 1 0 1 0 1 0 2 0 0 0 0 0 1 0 0 0 1 0 1 0 1 0 2 0 2 0 0 0 0 0 1 0 0 0 0-1 0 0 1 0 1 0 2 0 0 0 0 0 1-1 2-1 4-2 6 0 1 0 1 0 1 0 0-1 1-1 1 0 0 0 1 0 1 0 0 0 0 0 1-1 0-1 1-1 1-1 2-2 4-4 6 0 1 0 1 0 1-1 1-1 2-2 3-9 13-24 22-43 22l-72 0 0-170 33 0 0 57 40 0c17 0 32 9 42 22 1 0 1 1 1 2 1 0 1 1 2 2 0 0 0 0 0 1 1 1 2 2 2 4 1 0 1 1 1 2 1 0 1 1 1 2 1 0 1 1 1 2 0 0 0 1 0 1 1 0 1 1 1 1 0 0 0 1 0 1 0 0 0 1 0 1 1 1 1 1 1 2 0 0 0 1 0 1 0 1 1 3 1 4 0 0 0 1 0 1 0 0 0 0 0 0 0 1 0 1 0 2 0 0 0 0 0 1 0 0 0 1 0 1 0 1 0 1 0 2 0 1 0 1 0 2 0 0 0 1 0 1z m-55-29l-38 0 0 55 37 0c14 0 23-13 23-27 0-15-10-28-22-28z m45-5c0-1-1-2-1-2 0 0 1 1 1 2z m129-44c0-35-35-39-51-39-29 0-50 13-57 19l12 20c8-5 25-16 44-16 19 0 21 5 21 13 0 9-18 15-28 17-8 3-45 8-45 35 0 28 23 42 50 42 26 0 42-11 49-17l-13-20c-7 5-21 14-37 14-15 0-19-5-19-14 0-9 20-15 25-16 8-2 49-8 49-38z m-130 42c0 0 1 1 1 2 0-1-1-2-1-2z m130-42c0-35-35-39-51-39-29 0-50 13-57 19l12 20c8-5 25-16 44-16 19 0 21 5 21 13 0 9-18 15-28 17-8 3-45 8-45 35 0 28 23 42 50 42 26 0 42-11 49-17l-13-20c-7 5-21 14-37 14-15 0-19-5-19-14 0-9 20-15 25-16 8-2 49-8 49-38z"/>
<glyph glyph-name="adobe-premier" unicode="&#57365;" d="M0 512l0-512 512 0 0 512z m482-482l-452 0 0 452 452 0z m-146 206c3 7 14 22 42 22l0 29c-29 3-43-24-45-28l0 27-30 0 0-126 33 0z m-146-19l40 0c10 0 18 3 26 7 0 0 0 0 0 0 1 0 1 1 2 1 0 0 1 1 1 1 0 0 1 0 1 1 0 0 1 0 1 0 1 1 2 2 4 3 0 1 0 1 1 1 0 1 1 1 1 2 1 0 1 1 1 1 1 1 2 2 3 3 0 1 1 1 1 1 0 1 1 1 1 2 0 0 1 1 1 1 0 1 1 1 1 2 0 1 1 2 2 3 0 0 0 0 0 0 0 1 0 1 1 2 0 0 0 1 0 1 1 1 1 1 1 2 1 1 1 2 1 4 1 0 1 1 1 1 0 1 0 2 1 3 0 1 0 1 0 2 0 0 0 0 0 0 0 0 0 1 0 1 0 1 1 1 1 2 0 0 0 1 0 1 0 0 0 1 0 1 0 1 0 1 0 2 0 0 0 1 0 2 0 0 0 1 0 1 0 0 0 1 0 1 0 0 0 1 0 1 0 1 0 1 0 2 0 0 0 0 0 0 0 1 0 1 0 2 0 0 0 1 0 2 0 0 0 1 0 1 0 1 0 2-1 3 0 1 0 1 0 1 0 0 0 1 0 1 0 1 0 2-1 4 0 0 0 0 0 1-1 1-1 3-2 4 0 1 0 1 0 2-1 0-1 1-1 1-1 1-1 3-2 4 0 0 0 1-1 1 0 1 0 1-1 2 0 0 0 1-1 1 0 1 0 1-1 2 0 1-1 2-2 3-1 1-1 2-2 3-1 0-1 0-1 1-1 1-2 2-3 3-1 0-1 0-2 1-1 1-4 3-6 4-7 5-16 8-26 8l-73 0 0-171 33 0 0 57z m0 84l37 0c14 0 23-13 23-27 0-15-10-28-21-28l-39 0z"/>
<glyph glyph-name="sketch" unicode="&#57366;" d="M256 495l-160-174 320 0z m-160-30l-96-144 256-304-160 304z m320 0l0-144-160-304 256 304z"/>
<glyph glyph-name="wordpress" unicode="&#57367;" d="M15 256c0-95 55-178 136-217l-115 315c-14-30-21-63-21-98z m404 12c0 30-11 51-20 67-12 20-24 36-24 56 0 20 17 43 41 43l3 0c-43 39-100 63-163 63-63 0-156-42-199-105 18-1 77-1 77-1 13 1 15-18 2-20 0 0-13-1-28-2l88-261 53 158-38 103c-13 1-25 2-25 2-13 1-11 21 2 20l127 0c13 1 15-18 2-20 0 0-13-1-28-2l88-259 24 80c12 31 18 57 18 78z m-159-33l-72-211c21-6 44-9 68-9 24 0 55 4 80 13l-2 4-74 203z m208 137c1-8 1-16 1-25 0-25-4-52-18-87l-74-213c72 42 120 120 120 209 0 42-10 81-29 116z"/>
</font>
</defs>
</svg>
