<?xml version="1.0" encoding="utf-8"?>
<!-- Generator: Adobe Illustrator 22.0.1, SVG Export Plug-In . SVG Version: 6.00 Build 0)  -->
<svg version="1.1" id="Capa_1" xmlns="http://www.w3.org/2000/svg" xmlns:xlink="http://www.w3.org/1999/xlink" x="0px" y="0px"
	 viewBox="0 0 485.2 485.2" style="enable-background:new 0 0 485.2 485.2;" xml:space="preserve">
<style type="text/css">
	.st0{fill:#FFFFFF;}
</style>
<g>
	<g>
		<path class="st0" d="M121.3,30.3h242.6V91h30.3V30.3c0-16.7-13.6-30.3-30.3-30.3H121.3C104.6,0,91,13.6,91,30.3V91h30.3
			C121.3,91,121.3,30.3,121.3,30.3z"/>
		<path class="st0" d="M454.9,121.3H30.3C13.6,121.3,0,134.9,0,151.6v151.6c0,16.8,13.6,30.3,30.3,30.3H91v121.3
			c0,16.8,13.6,30.3,30.3,30.3h242.6c16.8,0,30.3-13.6,30.3-30.3V333.6h60.7c16.8,0,30.3-13.6,30.3-30.3V151.6
			C485.2,134.9,471.6,121.3,454.9,121.3z M363.9,454.9H121.3V242.6h242.6V454.9z M424.6,212.3c-16.8,0-30.3-13.6-30.3-30.3
			c0-16.7,13.6-30.3,30.3-30.3c16.8,0,30.3,13.6,30.3,30.3C454.9,198.7,441.3,212.3,424.6,212.3z"/>
		<rect x="151.6" y="272.9" class="st0" width="121.3" height="30.3"/>
		<rect x="151.6" y="333.6" class="st0" width="182" height="30.3"/>
		<rect x="151.6" y="394.2" class="st0" width="182" height="30.3"/>
	</g>
</g>
</svg>
