<?xml version="1.0" encoding="UTF-8"?>
<svg id="Capa_1" xmlns="http://www.w3.org/2000/svg" version="1.1" viewBox="0 0 512 512">
  <!-- Generator: Adobe Illustrator 29.1.0, SVG Export Plug-In . SVG Version: 2.1.0 Build 142)  -->
  <path d="M0,0v512h512V0H0ZM482,482H30V30h452v452Z"/>
  <path d="M146,236h-60v-70c0-33.1,26.9-60,60-60v30c-16.5,0-30,13.5-30,30v10h30v60Z"/>
  <path d="M236,106v30c-16.5,0-30,13.5-30,30v10h30v60h-60v-70c0-33.1,26.9-60,60-60Z"/>
  <path d="M236,316v30c-38.6,0-70-31.4-70-70h30c0,22.1,17.9,40,40,40Z"/>
  <path d="M236,376v30c-71.7,0-130-58.3-130-130h30c0,55.1,44.9,100,100,100Z"/>
  <path d="M276,276h60v70c0,33.1-26.9,60-60,60v-30c16.5,0,30-13.5,30-30v-10h-30v-60Z"/>
  <path d="M346,236h-30c0-22.1-17.9-40-40-40v-30c38.6,0,70,31.4,70,70Z"/>
  <path d="M376,236c0-55.1-44.9-100-100-100v-30c71.7,0,130,58.3,130,130h-30Z"/>
  <path d="M426,276v70c0,33.1-26.9,60-60,60v-30c16.5,0,30-13.5,30-30v-10h-30v-60h60Z"/>
  <path d="M276,276h60v70c0,33.1-26.9,60-60,60v-30c16.5,0,30-13.5,30-30v-10h-30v-60Z"/>
  <path d="M346,236h-30c0-22.1-17.9-40-40-40v-30c38.6,0,70,31.4,70,70Z"/>
  <path d="M376,236c0-55.1-44.9-100-100-100v-30c71.7,0,130,58.3,130,130h-30Z"/>
  <path d="M426,276v70c0,33.1-26.9,60-60,60v-30c16.5,0,30-13.5,30-30v-10h-30v-60h60Z"/>
  <path d="M146,236h-60v-70c0-33.1,26.9-60,60-60v30c-16.5,0-30,13.5-30,30v10h30v60Z"/>
  <path d="M236,106v30c-16.5,0-30,13.5-30,30v10h30v60h-60v-70c0-33.1,26.9-60,60-60Z"/>
  <path d="M236,316v30c-38.6,0-70-31.4-70-70h30c0,22.1,17.9,40,40,40Z"/>
  <path d="M236,376v30c-71.7,0-130-58.3-130-130h30c0,55.1,44.9,100,100,100Z"/>
  <path d="M276,276h60v70c0,33.1-26.9,60-60,60v-30c16.5,0,30-13.5,30-30v-10h-30v-60Z"/>
  <path d="M346,236h-30c0-22.1-17.9-40-40-40v-30c38.6,0,70,31.4,70,70Z"/>
  <path d="M376,236c0-55.1-44.9-100-100-100v-30c71.7,0,130,58.3,130,130h-30Z"/>
  <path d="M426,276v70c0,33.1-26.9,60-60,60v-30c16.5,0,30-13.5,30-30v-10h-30v-60h60Z"/>
  <path d="M276,276h60v70c0,33.1-26.9,60-60,60v-30c16.5,0,30-13.5,30-30v-10h-30v-60Z"/>
  <path d="M346,236h-30c0-22.1-17.9-40-40-40v-30c38.6,0,70,31.4,70,70Z"/>
  <path d="M376,236c0-55.1-44.9-100-100-100v-30c71.7,0,130,58.3,130,130h-30Z"/>
  <path d="M426,276v70c0,33.1-26.9,60-60,60v-30c16.5,0,30-13.5,30-30v-10h-30v-60h60Z"/>
  <g>
    <path d="M206,166v10h30v60h-60v-70c0-33.1,26.9-60,60-60v30c-16.5,0-30,13.5-30,30Z"/>
    <path d="M116,166v10h30v60h-60v-70c0-33.1,26.9-60,60-60v30c-16.5,0-30,13.5-30,30Z"/>
  </g>
  <g>
    <path d="M336,276v70c0,33.1-26.9,60-60,60v-30c16.5,0,30-13.5,30-30v-10h-30v-60h60Z"/>
    <path d="M426,276v70c0,33.1-26.9,60-60,60v-30c16.5,0,30-13.5,30-30v-10h-30v-60h60Z"/>
    <path d="M346,236h-30c0-22.1-17.9-40-40-40v-30c38.6,0,70,31.4,70,70Z"/>
    <path d="M406,236h-30c0-55.1-44.9-100-100-100v-30c71.7,0,130,58.3,130,130Z"/>
  </g>
  <g>
    <path d="M236,316v30c-38.6,0-70-31.4-70-70h30c0,22.1,17.9,40,40,40Z"/>
    <path d="M236,376v30c-71.7,0-130-58.3-130-130h30c0,55.1,44.9,100,100,100Z"/>
  </g>
</svg>