<?xml version="1.0" encoding="UTF-8"?>
<svg id="Capa_1" xmlns="http://www.w3.org/2000/svg" version="1.1" viewBox="0 0 512 512">
  <!-- Generator: Adobe Illustrator 29.1.0, SVG Export Plug-In . SVG Version: 2.1.0 Build 142)  -->
  <path d="M0,0v512h512V0H0ZM482,482H30V30h452v452Z"/>
  <path d="M454.1,202.9l-53.1-30.6v-61.3h-61.3l-30.6-53.1-53.1,30.6-53.1-30.6-30.6,53.1h-61.3v61.3l-53.1,30.6,30.6,53.1-30.6,53.1,53.1,30.6v61.3h61.3l30.6,53.1,53.1-30.6,53.1,30.6,30.6-53.1h61.3v-61.3l53.1-30.6-30.6-53.1,30.6-53.1ZM111,305.1l-12.1-7,12.1-20.9v27.9ZM111,234.8l-12.1-20.9,12.1-7v27.9ZM298.1,98.9l7,12.1h-27.9l20.9-12.1ZM213.9,98.9l20.9,12.1h-27.9l7-12.1ZM213.9,413.1l-7-12.1h27.9l-20.9,12.1ZM298.1,413.1l-20.9-12.1h27.9l-7,12.1ZM371,371h-230v-230h230v230ZM401,305.1v-27.9l12.1,20.9-12.1,7ZM401,234.8v-27.9l12.1,7-12.1,20.9Z"/>
</svg>