<?xml version="1.0" encoding="UTF-8"?>
<svg id="Capa_1" xmlns="http://www.w3.org/2000/svg" version="1.1" viewBox="0 0 512 512">
  <!-- Generator: Adobe Illustrator 29.1.0, SVG Export Plug-In . SVG Version: 2.1.0 Build 142)  -->
  <path d="M0,0v512h512V0H0ZM482,482H30V30h452v452Z"/>
  <path d="M256,440c1.1.8,2.2,1.4,3.3,2.1-1.1-.6-2.2-1.3-3.3-2.1h0Z"/>
  <path d="M260.4,442.8c1,.5,2,1,3.1,1.5-1-.5-2.1-1-3.1-1.5Z"/>
  <path d="M266.7,445.5c1.1.4,2.2.7,3.2,1-1.1-.3-2.2-.6-3.2-1Z"/>
  <path d="M273.1,415.4c.3.2.6.4,1,.6-.3-.2-.7-.4-1-.6l-17.1-12h0s17.1,12,17.1,12Z"/>
  <path d="M256,440c1.1.8,2.2,1.4,3.3,2.1-1.1-.6-2.2-1.3-3.3-2.1h0Z"/>
  <path d="M260.4,442.8c1,.5,2,1,3.1,1.5-1-.5-2.1-1-3.1-1.5Z"/>
  <path d="M266.7,445.5c1.1.4,2.2.7,3.2,1-1.1-.3-2.2-.6-3.2-1Z"/>
  <path d="M273.1,415.4c.3.2.6.4,1,.6-.3-.2-.7-.4-1-.6l-17.1-12h0s17.1,12,17.1,12Z"/>
  <path d="M256,440c1.1.8,2.2,1.4,3.3,2.1-1.1-.6-2.2-1.3-3.3-2.1h0Z"/>
  <path d="M260.4,442.8c1,.5,2,1,3.1,1.5-1-.5-2.1-1-3.1-1.5Z"/>
  <path d="M266.7,445.5c1.1.4,2.2.7,3.2,1-1.1-.3-2.2-.6-3.2-1Z"/>
  <path d="M273.1,415.4c.3.2.6.4,1,.6-.3-.2-.7-.4-1-.6l-17.1-12h0s17.1,12,17.1,12Z"/>
  <path d="M256,440c1.1.8,2.2,1.4,3.3,2.1-1.1-.6-2.2-1.3-3.3-2.1h0Z"/>
  <path d="M260.4,442.8c1,.5,2,1,3.1,1.5-1-.5-2.1-1-3.1-1.5Z"/>
  <path d="M266.7,445.5c1.1.4,2.2.7,3.2,1-1.1-.3-2.2-.6-3.2-1Z"/>
  <path d="M273.1,415.4c.3.2.6.4,1,.6-.3-.2-.7-.4-1-.6l-17.1-12h0s17.1,12,17.1,12Z"/>
  <path d="M266.7,445.5c1.1.4,2.2.7,3.2,1-1.1-.3-2.2-.6-3.2-1ZM260.4,442.8c1,.6,2,1.1,3.1,1.5-1-.5-2.1-1-3.1-1.5ZM256,440h0c1.1.8,2.2,1.5,3.3,2.1-1.1-.7-2.2-1.3-3.3-2.1Z"/>
  <path d="M447.5,222.5c-2.1-11.8-8.6-22.2-18.5-29.1l-172.9-121.4s0,0,0,0h0c-9.8-6.9-21.7-9.5-33.5-7.4-11.8,2.1-22.2,8.6-29.1,18.5l-121.4,172.9c-6.9,9.8-9.6,21.8-7.5,33.6,2.1,11.8,8.6,22.2,18.5,29.1l172.9,121.4s0,0,0,0c1.1.8,2.2,1.4,3.3,2.1.4.2.8.4,1.1.6,1,.5,2,1,3.1,1.5.5.2,1,.4,1.6.7.5.2,1.1.4,1.6.6,1.1.4,2.2.7,3.2,1,.5.1,1.1.3,1.6.4,1.1.2,2.2.5,3.3.6,4.8.7,9.8.7,14.7-.2,11.8-2.1,22.2-8.6,29.1-18.5l121.4-172.9c6.9-9.8,9.6-21.8,7.5-33.6ZM415.4,238.9l-121.4,172.9c-2.3,3.3-5.8,5.5-9.7,6.1-2.6.5-5.2.2-7.6-.6-.4-.1-.7-.3-1-.4-.2,0-.4-.2-.5-.2-.3-.2-.7-.3-1-.5-.3-.2-.7-.4-1-.6l-17.1-12h0s-155.8-109.4-155.8-109.4c-3.3-2.3-5.5-5.8-6.1-9.7-.7-3.9.2-7.9,2.5-11.2l121.4-172.9c2.3-3.3,5.8-5.5,9.7-6.1,3.9-.7,7.9.2,11.2,2.5l17.1,12h0s155.8,109.4,155.8,109.4c.4.3.8.6,1.2.9.9.8,1.8,1.7,2.5,2.7.3.4.5.8.8,1.2h0c.6,1.1,1.1,2.2,1.4,3.4.1.5.2,1,.3,1.5.7,3.9-.2,7.9-2.5,11.2Z"/>
  <path d="M256,163.5c-51,0-92.5,41.5-92.5,92.5s41.5,92.5,92.5,92.5,92.5-41.5,92.5-92.5-41.5-92.5-92.5-92.5ZM256,282.2l-29.7,17.1v-86.6l29.7,17.1,45.3,26.2-45.3,26.2Z"/>
  <path d="M274.1,416c-.3-.2-.7-.4-1-.6l-17.1-12h0s17.1,12,17.1,12c.3.2.6.4,1,.6Z"/>
</svg>