<?xml version="1.0" encoding="UTF-8"?>
<svg id="Capa_1" xmlns="http://www.w3.org/2000/svg" version="1.1" viewBox="0 0 512 512">
  <!-- Generator: Adobe Illustrator 29.1.0, SVG Export Plug-In . SVG Version: 2.1.0 Build 142)  -->
  <path d="M0,0v512h512V0H0ZM482,482H30V30h452v452Z"/>
  <path d="M154.3,357.6c4.6,10.8,10.4,21,17.4,30.6l24.2-17.7c-.5-.6-.9-1.3-1.3-1.9,6.7.9,13.5,1.3,20.4,1.3,14.2,0,27.9-1.9,41-5.5,2.1-.6,4.1-1.2,6.1-1.8.7-.2,1.4-.4,2-.7,11.6-3.9,22.6-9.1,32.8-15.5h0c2.1-1.3,4.2-2.7,6.2-4.1,2-1.4,4-2.9,6-4.4,0,0,0,0,0,0,.8-.6,1.6-1.2,2.4-1.9,1.8-1.5,3.6-2.9,5.4-4.5.6-.5,1.2-1,1.7-1.6.6-.5,1.2-1,1.7-1.6,1.7-1.6,3.4-3.2,5-4.9.5-.5,1.1-1.1,1.6-1.7,1.1-1.1,2.1-2.3,3.2-3.4h0c1-1.2,2.1-2.3,3.1-3.5,1-1.2,2-2.4,3-3.6.5-.6,1-1.2,1.4-1.8,1.4-1.9,2.8-3.7,4.2-5.6.4-.6.9-1.3,1.3-1.9.6-.9,1.2-1.7,1.7-2.6,1.1-1.7,2.2-3.5,3.3-5.3.5-.9,1.1-1.8,1.6-2.7.5-.9,1-1.8,1.5-2.7,0,0,0,0,0,0,.5-.9,1-1.8,1.4-2.7.5-.9,1-1.8,1.4-2.8s.9-1.9,1.4-2.8c0,0,0,0,0,0,.4-.9.9-1.9,1.3-2.8,0-.2.2-.4.3-.6.3-.7.6-1.5,1-2.2,0,0,0,0,0,0,.8-1.8,1.5-3.7,2.2-5.6.8-2,1.5-4.1,2.2-6.2.3-1,.6-2,.9-3,.3-1,.6-2,.9-3.1.3-1,.6-2,.8-3.1,0,0,0,0,0,0,.2-.9.5-1.9.7-2.8,0-.3.1-.6.2-.9.2-.8.4-1.6.5-2.4,0,0,0-.1,0-.2.2-.8.4-1.7.5-2.5,0-.3.1-.6.2-.9.2-.9.3-1.8.5-2.7.2-.9.3-1.8.4-2.8,0-.5.2-1,.2-1.5.1-.8.2-1.6.3-2.4.1-1,.2-2,.3-2.9,0,0,0-.1,0-.2.1-1.1.2-2.1.3-3.2s.2-2.1.2-3.2c0,0,0-.1,0-.2,0-1.1.1-2.1.2-3.2h0c0-1.1,0-2.2.1-3.3,0-1.1,0-2.2,0-3.3,0-6.9-.5-13.8-1.3-20.4,4.1,2.9,8,6,11.8,9.4l20-22.3c-12.8-11.5-27.2-20.7-42.9-27.3-.5-1.1-.9-2.1-1.4-3.2-.3-.7-.6-1.3-.9-2-.3-.8-.7-1.5-1.1-2.2-1.7-3.5-3.5-6.9-5.5-10.2-.5-.8-.9-1.6-1.4-2.4,0,0,0,0,0,0-.4-.7-.9-1.5-1.4-2.2-1.6-2.5-3.2-4.9-4.9-7.3-.4-.6-.9-1.2-1.4-1.9-3.6-4.9-7.5-9.6-11.7-14-.5-.5-1-1-1.4-1.5-.5-.5-1-1-1.5-1.5-1-1-2-2-3.1-3-.5-.5-1-.9-1.5-1.4,0,0-.1-.1-.2-.2-1.5-1.4-3.1-2.9-4.8-4.2-1.1-.9-2.1-1.8-3.2-2.7-1.2-.9-2.3-1.9-3.5-2.8-.5-.4-1-.7-1.5-1.1-.1-.1-.3-.2-.4-.3-1.2-.8-2.3-1.7-3.5-2.5-1.2-.8-2.3-1.6-3.5-2.4-.6-.4-1.2-.8-1.8-1.2-1.8-1.1-3.6-2.2-5.4-3.3-.7-.4-1.4-.8-2.1-1.2-1.3-.7-2.5-1.4-3.8-2.1-.7-.4-1.5-.8-2.2-1.1-1.2-.6-2.5-1.2-3.7-1.8-.7-.3-1.3-.6-2-.9-1.3-.6-2.7-1.2-4-1.7-.7-.3-1.4-.6-2-.8-.7-.3-1.4-.5-2-.8-.7-.3-1.4-.5-2.1-.8-1.4-.5-2.8-1-4.2-1.5-.5-.2-1-.4-1.5-.5-.9-.3-1.7-.6-2.6-.8-1.4-.4-2.8-.8-4.3-1.2h0c-13.1-3.6-26.8-5.5-41-5.5-85.5,0-155,69.5-155,155s38.9,119,94.3,142.6ZM284.2,172.7c.5,0,1.1-.1,1.6-.2.5,0,1,0,1.6-.1.5,0,1.1,0,1.6-.1.8,0,1.5,0,2.2-.1.3,0,.6,0,1,0,.7,0,1.4,0,2.1,0h0c.9,0,1.8,0,2.7,0,12.8,0,25.3,1.9,37.3,5.7,3.7,11.8,5.7,24.3,5.7,37.3s0,1.7,0,2.5c0,.8,0,1.5,0,2.3,0,.2,0,.3,0,.5,0,.8,0,1.5-.1,2.3,0,.7,0,1.3-.1,2,0,.7,0,1.3-.2,1.9,0,.4,0,.8-.1,1.2,0,.1,0,.2,0,.3l-55.4-55.4c0,0,.1,0,.2,0,0,0,.1,0,.2,0ZM250,181.2l80.9,80.9c-.7,1.6-1.4,3.2-2.1,4.8-.1.3-.3.6-.4.9-.2.5-.4.9-.6,1.4-.2.4-.4.8-.6,1.2-1.6,3.2-3.3,6.4-5.2,9.5-.2.3-.4.7-.6,1-1.4,2.2-2.8,4.4-4.3,6.5-.3.4-.6.8-.9,1.2-.3.4-.6.8-.9,1.2-.3.4-.6.8-.9,1.2-.3.4-.6.8-.9,1.2h0l-57.3-57.3h0s-36.1-36.1-36.1-36.1c9.1-7.1,19.2-13.1,30.1-17.5ZM198.7,219.9l93.4,93.4c0,0-.2.2-.3.2-.7.5-1.4,1.1-2.1,1.6-.6.5-1.2.9-1.9,1.4,0,0,0,0,0,0-1.3.9-2.6,1.8-3.9,2.7-.7.4-1.3.9-2,1.3-.6.4-1.2.8-1.9,1.2,0,0-.2.1-.2.2-.6.4-1.3.8-2,1.2-.7.4-1.4.8-2.1,1.2-1.4.8-2.8,1.5-4.2,2.2-.7.4-1.4.7-2.2,1.1-.7.4-1.5.7-2.2,1.1-.8.4-1.7.8-2.5,1.1-.9.4-1.7.7-2.6,1.1l-6-6h0s-74.8-74.8-74.8-74.8c4.4-10.9,10.4-21,17.5-30.1ZM172.7,283.9l55.4,55.4c-4.3.5-8.7.7-13.1.7-13,0-25.5-2-37.3-5.7-3.8-12-5.7-24.5-5.7-37.3s.2-8.8.7-13.1Z"/>
  <path d="M213.4,390l-20.1,22.3c16.3,14.6,35.1,25.5,55.8,32.2l6.8-21h0s2.4-7.5,2.4-7.5c-.8-.3-1.6-.5-2.4-.8-15.8-5.5-30.1-13.9-42.6-25.2Z"/>
  <path d="M419.2,270.7l29.3-6.3c-4.6-21.3-13.4-41.1-26.4-58.8l-24.2,17.7c10.4,14.3,17.6,30.2,21.2,47.4Z"/>
  <path d="M422,297c0,17.7-3.6,34.8-10.8,50.8l27.4,12.2c8.9-19.9,13.4-41.1,13.4-63v-.3h-30v.3Z"/>
  <path d="M297,422c-4.3,0-8.7-.2-13-.7l-3.1,29.8c5.3.5,10.7.8,16.1.8,16.4,0,32.5-2.5,48-7.6l-9.3-28.5c-12.5,4-25.5,6.1-38.7,6.1Z"/>
  <path d="M359.5,405.3l15,26c18.6-10.8,35.2-25.7,47.8-43.1l-24.3-17.6c-10.2,14.1-23.6,26.1-38.6,34.8Z"/>
</svg>