<?xml version="1.0" encoding="UTF-8"?>
<svg id="Capa_1" xmlns="http://www.w3.org/2000/svg" version="1.1" viewBox="0 0 512 512">
  <!-- Generator: Adobe Illustrator 29.1.0, SVG Export Plug-In . SVG Version: 2.1.0 Build 142)  -->
  <path d="M0,0v512h512V0H0ZM482,482H30V30h452v452Z"/>
  <path d="M256,71c-102,0-185,83-185,185s83,185,185,185,185-83,185-185-83-185-185-185ZM256,411c-85.5,0-155-69.5-155-155s69.5-155,155-155,155,69.5,155,155-69.5,155-155,155Z"/>
  <polygon points="336 241 336 271 271 271 271 336 241 336 241 271 176 271 176 241 241 241 241 176 271 176 271 241 336 241"/>
</svg>