<?xml version="1.0" encoding="UTF-8"?>
<svg id="Capa_1" xmlns="http://www.w3.org/2000/svg" version="1.1" viewBox="0 0 512 512">
  <!-- Generator: Adobe Illustrator 29.1.0, SVG Export Plug-In . SVG Version: 2.1.0 Build 142)  -->
  <path d="M0,0v512h512V0H0ZM482,482H30V30h452v452Z"/>
  <path d="M256.5,448.5l198.4-224.9-7.9-7.3-190.5,197.1-.5-.5-15-17.3v-128.5c-9-5.2-15-14.9-15-26,0-16.6,13.4-30,30-30s30,13.4,30,30-6,20.8-15,26v128.8l86-154.8v-35.2c-36.8-27.1-60.7-70.6-61-119.8h-80c-.3,49.1-24.2,92.6-61,119.8v35.2l85.5,154L76.5,205.7l-30.9,28.6,210.4,213.7.5.5Z"/>
</svg>