<?xml version="1.0" encoding="UTF-8"?>
<svg id="Capa_1" xmlns="http://www.w3.org/2000/svg" version="1.1" viewBox="0 0 512 512">
  <!-- Generator: Adobe Illustrator 29.1.0, SVG Export Plug-In . SVG Version: 2.1.0 Build 142)  -->
  <path d="M0,0v512h512V0H0ZM482,482H30V30h452v452Z"/>
  <path d="M312.5,278.6c1.1-3.8,10.9-26.2,32.6-26.2s19.9,8.9,19.9,29v70.6h32.2v-78.5c0-25.2-7.3-49.4-37.9-49.4s-45.3,17.4-49.9,25.4v-23.3h-29v125.8h32.2v-73.4Z"/>
  <path d="M155.3,309.5h59.5l15.8,42.5h34.1l-8.7-22.9-56.1-147.5h-29.3l-65,170.4h34.1l15.6-42.5ZM185.3,219.3l23.5,67h-48l24.5-67Z"/>
</svg>