<?xml version="1.0" encoding="UTF-8"?>
<svg id="Capa_1" xmlns="http://www.w3.org/2000/svg" version="1.1" viewBox="0 0 512 512">
  <!-- Generator: Adobe Illustrator 29.1.0, SVG Export Plug-In . SVG Version: 2.1.0 Build 142)  -->
  <rect x="164.3" y="181.6" width="33.1" height="170.4"/>
  <path d="M256.4,303.3c.3.8.6,1.6,1,2.4-.3-.8-.7-1.6-1-2.4ZM256,228.5h0c.4-.2.8-.3,1.2-.5-.4.2-.8.3-1.2.5ZM256.8,274.6c.5-1.2,1-2.4,1.5-3.6-.6,1.2-1.1,2.4-1.5,3.6ZM258,307c.4.8.8,1.6,1.3,2.4-.5-.8-.9-1.6-1.3-2.4ZM258.5,227.5c.8-.3,1.7-.6,2.5-.9-.8.3-1.7.6-2.5.9ZM261.6,351.5c2.4.8,4.9,1.5,7.5,1.9-2.6-.5-5.1-1.1-7.5-1.9Z"/>
  <path d="M0,0v512h512V0H0ZM482,482H30V30h452v452Z"/>
  <path d="M256.4,303.3c.3.8.6,1.6,1,2.4-.4-.8-.7-1.6-1-2.4Z"/>
  <path d="M257.2,228c-.4.2-.8.4-1.2.5h0c.4-.2.8-.4,1.2-.5Z"/>
  <path d="M256.8,274.6c.5-1.2,1-2.4,1.5-3.6-.6,1.2-1.1,2.4-1.5,3.6Z"/>
  <path d="M258,307c.4.8.8,1.6,1.3,2.4-.5-.8-.9-1.6-1.3-2.4Z"/>
  <path d="M261,226.6c-.8.3-1.7.6-2.5.9.8-.3,1.7-.6,2.5-.9Z"/>
  <path d="M261.6,351.5c2.4.8,4.9,1.4,7.5,1.9-2.6-.5-5.1-1.1-7.5-1.9Z"/>
  <rect x="164.3" y="181.6" width="33.1" height="170.4"/>
  <path d="M256.4,303.3c.3.8.6,1.6,1,2.4-.3-.8-.7-1.6-1-2.4ZM256,228.5h0c.4-.2.8-.3,1.2-.5-.4.2-.8.3-1.2.5ZM256.8,274.6c.5-1.2,1-2.4,1.5-3.6-.6,1.2-1.1,2.4-1.5,3.6ZM258,307c.4.8.8,1.6,1.3,2.4-.5-.8-.9-1.6-1.3-2.4ZM258.5,227.5c.8-.3,1.7-.6,2.5-.9-.8.3-1.7.6-2.5.9ZM261.6,351.5c2.4.8,4.9,1.5,7.5,1.9-2.6-.5-5.1-1.1-7.5-1.9Z"/>
  <path d="M256.4,303.3c.3.8.6,1.6,1,2.4-.4-.8-.7-1.6-1-2.4Z"/>
  <path d="M257.2,228c-.4.2-.8.4-1.2.5h0c.4-.2.8-.4,1.2-.5Z"/>
  <path d="M256.8,274.6c.5-1.2,1-2.4,1.5-3.6-.6,1.2-1.1,2.4-1.5,3.6Z"/>
  <path d="M258,307c.4.8.8,1.6,1.3,2.4-.5-.8-.9-1.6-1.3-2.4Z"/>
  <path d="M261,226.6c-.8.3-1.7.6-2.5.9.8-.3,1.7-.6,2.5-.9Z"/>
  <path d="M261.6,351.5c2.4.8,4.9,1.4,7.5,1.9-2.6-.5-5.1-1.1-7.5-1.9Z"/>
  <g>
    <rect x="164.3" y="181.6" width="33.1" height="170.4"/>
    <path d="M256,228.5h0c.4-.2.8-.3,1.2-.5-.4.2-.8.3-1.2.5ZM258.5,227.5c.8-.3,1.7-.6,2.5-.9-.8.3-1.7.6-2.5.9ZM261.6,351.5c2.4.8,4.9,1.5,7.5,1.9-2.6-.5-5.1-1.1-7.5-1.9Z"/>
    <path d="M351.5,315v-138.2h-32.2v71.5c-4.2-7.2-17.2-24.2-42.5-24.2s-1.1,0-1.6,0c-.4,0-.8,0-1.2,0-.9,0-1.8.1-2.6.2-.4,0-.9,0-1.3.2-1.8.2-3.5.6-5.3,1-.4.1-.9.2-1.3.3-.9.2-1.7.5-2.6.8-.8.3-1.7.6-2.5.9-.4.2-.8.3-1.2.5-.4.2-.8.4-1.2.5-20.3,9-35.3,31-35.3,60.6s13,50,35.3,60.2c.4.2.8.4,1.2.5.1,0,.2,0,.4.2.4.2.8.3,1.2.5.5.2.9.4,1.4.5.5.2,1,.3,1.4.5,2.4.8,4.9,1.4,7.5,1.9.5,0,1,.2,1.6.3.5,0,1,.2,1.6.2.5,0,1.1.1,1.6.2,2.1.2,4.3.3,6.6.3,25.2,0,39-16.2,43.7-24.2,0,0-2.1,23.5,21.1,23.5s8.1-.6,13.7-1.7v-27.4c-2.7-.2-7.4-6.2-7.4-9.6ZM319.3,305.9c-1.1,3-10.3,21.1-30.5,21.1s-1,0-1.4,0h-.2c-.4,0-.9,0-1.3,0-.4,0-.8,0-1.1-.1-.3,0-.5,0-.8,0-.5,0-.9-.1-1.3-.2-.4,0-.8-.1-1.2-.2-.4,0-.8-.2-1.1-.3-.1,0-.3,0-.4,0-.9-.2-1.7-.5-2.6-.8-.4-.1-.8-.3-1.1-.4-.1,0-.2,0-.4-.1-.4-.2-.7-.3-1.1-.5-.9-.4-1.7-.8-2.5-1.3-.3-.2-.7-.4-1-.6,0,0,0,0-.1,0-.4-.2-.8-.5-1.1-.8-.4-.3-.7-.5-1.1-.8s-.7-.5-1.1-.8c-.4-.3-.7-.6-1-.9-.3-.3-.7-.6-1-.9,0,0,0,0,0,0-.3-.3-.6-.6-.9-.9-.3-.3-.6-.6-.9-1h0c-.3-.3-.5-.6-.8-.9-.1-.1-.2-.3-.3-.4-.5-.6-1-1.2-1.4-1.8-.3-.4-.5-.7-.8-1.1-.2-.3-.5-.7-.7-1,0,0-.1-.2-.2-.3-.2-.3-.4-.6-.6-1-.5-.8-.9-1.6-1.3-2.4-.2-.4-.4-.8-.5-1.1,0,0,0,0,0-.1-.4-.8-.7-1.6-1-2.4-.2-.4-.3-.8-.4-1.3h0c-1.3-3.9-2-8.1-2-12.2s.7-8.5,2-12.8h0c.1-.4.2-.8.4-1.2.1-.4.3-.8.4-1.2.5-1.2,1-2.4,1.5-3.6.2-.3.3-.7.5-1,0-.1.1-.2.2-.4.2-.3.3-.6.5-.9.2-.4.4-.8.7-1.2.2-.4.4-.7.7-1.1,0,0,0,0,0,0,.2-.3.4-.5.5-.8.2-.3.4-.6.6-.8.1-.2.2-.3.4-.5.2-.3.4-.6.6-.8.1-.1.2-.3.3-.4.2-.3.4-.5.7-.8.3-.3.6-.7.9-1,.6-.6,1.2-1.3,1.9-1.9.2-.2.5-.4.8-.7.1,0,.2-.2.3-.3.3-.2.6-.5.9-.7.4-.3.8-.6,1.1-.9.3-.2.6-.4.9-.6,1.2-.8,2.5-1.5,3.8-2.1.4-.2.7-.3,1.1-.5.5-.2.9-.4,1.4-.5.4-.1.8-.3,1.2-.4.3,0,.6-.2,1-.3.2,0,.4-.1.6-.2.4,0,.8-.2,1.1-.2,0,0,0,0,0,0,.4,0,.9-.2,1.4-.2.4,0,.8-.1,1.2-.2.1,0,.2,0,.3,0,.5,0,.9,0,1.4,0h0c.5,0,1,0,1.5,0,19.6,0,31.1,21,32.4,24.5v30Z"/>
  </g>
  <path d="M256.4,303.3c.3.8.6,1.6,1,2.4-.4-.8-.7-1.6-1-2.4Z"/>
  <path d="M258.4,271c-.6,1.2-1.1,2.4-1.5,3.6.5-1.2,1-2.4,1.5-3.6Z"/>
  <path d="M258,307c.4.8.8,1.6,1.3,2.4-.5-.8-.9-1.6-1.3-2.4Z"/>
</svg>