<?xml version="1.0" encoding="UTF-8"?>
<svg id="Capa_1" xmlns="http://www.w3.org/2000/svg" version="1.1" viewBox="0 0 512 512">
  <!-- Generator: Adobe Illustrator 29.1.0, SVG Export Plug-In . SVG Version: 2.1.0 Build 142)  -->
  <path d="M95.1,89.8c15.8,12.9,21.8,12,51.7,10l281.9-16.9c6,0,1-6-1-7l-46.8-33.9c-8.9-7-20.9-14.9-43.8-13L64.2,49c-10,.9-12,5.9-8,9.9l38.9,30.9ZM112,155.5v296.6c0,15.9,7.9,21.9,25.8,20.9l309.8-17.9c17.9-1,20-11.9,20-24.9V135.6c0-13-5-19.9-16-18.9l-323.7,18.9c-12,1-15.9,6.9-15.9,19.9h0ZM417.8,171.3c2,9,0,17.9-9,19l-14.9,3v218.9c-13,7-24.9,11-34.8,11-16,0-20-5-31.9-19.9l-97.7-153.3v148.3l30.9,7s0,17.9-24.9,17.9l-68.7,4c-2-4,0-14,7-15.9l17.9-5v-196l-24.9-2c-2-9,3-21.9,16.9-22.9l73.7-5,101.7,155.3v-137.4l-25.9-3c-2-10.9,5.9-18.9,15.9-19.8l68.7-4.2ZM41.2,22.1L325.2,1.2c34.8-3,43.8-1,65.7,14.9l90.7,63.7c14.9,10.9,19.9,13.9,19.9,25.8v349.5c0,21.9-8,34.8-35.8,36.8l-329.8,19.9c-20.8,1-30.8-2-41.8-15.9l-66.7-86.7c-11.9-15.9-16.9-27.8-16.9-41.7V56.9c-.2-17.9,7.8-32.8,30.7-34.8h0Z"/>
</svg>