<?xml version="1.0" encoding="UTF-8"?>
<svg id="Capa_1" xmlns="http://www.w3.org/2000/svg" version="1.1" viewBox="0 0 512 512">
  <!-- Generator: Adobe Illustrator 29.1.0, SVG Export Plug-In . SVG Version: 2.1.0 Build 142)  -->
  <path d="M0,0v512h512V0H0ZM482,482H30V30h452v452Z"/>
  <path d="M335.5,275.9c3.4-7.2,14.4-21.8,42.7-21.8v-29.3c-29-3-43.1,24-45.4,28.3v-26.9h-29.5v125.8h32.2v-76.1Z"/>
  <path d="M190.1,294.9h40.3c9.3,0,18-2.6,25.6-7,0,0,.1,0,.2-.1.5-.3.9-.5,1.3-.8.5-.3,1-.7,1.5-1,.4-.3.8-.5,1.1-.8.3-.2.6-.4.8-.6,1.3-1,2.5-2,3.7-3.1.3-.3.6-.5.9-.8.5-.5,1.1-1,1.6-1.6.4-.4.7-.8,1.1-1.1.9-1,1.9-2.1,2.7-3.2.3-.4.6-.8.9-1.1.4-.5.7-1,1.1-1.5.3-.5.7-1,1-1.5.3-.4.6-.9.8-1.3.6-1,1.2-2,1.8-3.1.2-.3.3-.5.4-.8.2-.5.5-.9.7-1.4.2-.5.5-1,.7-1.5.2-.5.4-.9.6-1.4.6-1.3,1.1-2.7,1.5-4.1.1-.4.3-.9.4-1.3.3-1.1.6-2.2.9-3.3.1-.4.2-.9.3-1.3,0,0,0-.1,0-.2,0-.4.2-.8.3-1.3,0-.5.2-.9.2-1.4,0-.5.2-.9.2-1.4,0-.4.1-.8.2-1.1,0-.5.1-1,.2-1.5,0-.6.1-1.3.2-1.9,0-.5,0-1,0-1.4,0-.3,0-.6,0-1,0-.5,0-1,0-1.5s0-.9,0-1.3c0-.2,0-.4,0-.6,0-.4,0-.9,0-1.3,0-.6,0-1.3-.2-2,0-.5-.1-1-.2-1.5-.1-1.1-.3-2.1-.5-3.2,0-.3,0-.6-.2-.8,0-.3-.1-.7-.2-1-.3-1.1-.5-2.3-.9-3.4,0-.3-.2-.7-.3-1-.5-1.5-1-3.1-1.6-4.6-.2-.5-.4-1-.6-1.5,0,0,0,0,0,0-.2-.5-.5-1.1-.7-1.6-.5-1.2-1.1-2.3-1.7-3.5-.2-.5-.5-.9-.8-1.3-.4-.6-.8-1.3-1.1-1.9-.3-.5-.6-.9-.9-1.4-.3-.5-.7-1-1-1.5,0,0,0,0,0,0-.7-1-1.5-2-2.2-2.9-.8-1-1.6-1.9-2.4-2.8-.4-.5-.8-.9-1.3-1.4-.9-.9-1.8-1.8-2.7-2.6-.5-.4-.9-.8-1.4-1.2-1.9-1.6-4-3.1-6.1-4.4-7.6-4.7-16.7-7.6-26.8-7.6h-72.2v170.4h33.1v-57.1ZM190.1,210.6h37c14.1,0,22.8,13.2,22.8,27.6s-9.7,27.6-21.4,27.6h-38.4v-55.2Z"/>
</svg>